<?xml version="1.0" encoding="UTF-8"?>
<svg width="100mm" height="100mm" version="1.1" viewBox="0 0 100 100" xmlns="http://www.w3.org/2000/svg">
    <defs>
        <clipPath id="clipPath33037">
            <circle cx="105.04" cy="158.72" r="32.181" style="fill-rule:evenodd;fill:#f00;stroke-width:.8;stroke:#689d44"/>
        </clipPath>
    </defs>
    <g transform="translate(-72.859 -126.54)">
        <circle transform="matrix(1.5537 0 0 1.5537 -40.342 -70.066)" cx="105.04" cy="158.72" r="32.181" clip-path="url(#clipPath33037)" style="fill-rule:evenodd;fill:#aace92;stroke-width:4;stroke:#689d44"/>
        <path transform="matrix(1.5537 0 0 1.5537 -56.326 -77.828)" d="m106.78 142.06c-0.43474-0.22821-0.7276-0.60135-0.7276-0.92705 0-0.29983-0.23813-0.84787-0.52917-1.2179s-0.52917-0.95432-0.52917-1.2985c0-0.50769 0.13729-0.62466 0.72761-0.61988 0.40018 3e-3 1.0253 0.23871 1.3891 0.52327 0.70634 0.5525 1.3229 0.68528 1.3229 0.28488 0-0.41395 1.3486-1.8724 1.7313-1.8724 0.46373 0 0.80555 1.7426 0.43047 2.1946-0.17683 0.21306-0.18933 0.47917-0.034 0.7247 0.36373 0.57511 0.30937 0.92196-0.25319 1.6155l-0.50669 0.62464-0.65893-0.61795c-0.64257-0.6026-0.66308-0.60483-0.82647-0.09-0.28519 0.89856-0.73509 1.0966-1.5361 0.67612z" style="fill:#c8e1b6;stroke-width:4"/>
        <path transform="matrix(1.5537 0 0 1.5537 -16.486 -62.977)" d="m92.49 139.54c-0.86914-0.31898-1.4011-1.3938-1.0316-2.0842 0.3647-0.68146 0.33482-0.80591-0.14893-0.62027-0.6407 0.24586-1.5768-0.39115-2.1974-1.4952-0.66596-1.1849-0.7286-2.2645-0.1444-2.4887 0.94902-0.36417 3.2086-0.12533 4.7297 0.49995 1.165 0.47892 1.6273 0.56557 1.7716 0.33211 0.10737-0.17373 0.28025-0.23085 0.38417-0.12692 0.10393 0.10392 0.61642-0.67344 1.1389-1.7275 0.95282-1.9223 2.306-3.23 3.0478-2.9453 0.46859 0.17981 0.93285 1.2647 1.1174 2.6113 0.12743 0.92966 0.055 1.2096-0.42949 1.661-0.57345 0.53425-0.57429 0.54559-0.0527 0.71112 1.3165 0.41785 1.1101 2.4774-0.38952 3.8862l-0.65985 0.6199-1.2617-0.67278c-1.3536-0.72178-1.8766-0.72919-1.8782-0.0266-5.3e-4 0.24253-0.23692 0.82793-0.52528 1.3009-0.46422 0.76137-0.65357 0.8575-1.6527 0.83901-0.6206-0.0115-1.4386-0.13474-1.8177-0.27389z" style="fill:#689d44;stroke-width:4"/>
        <path transform="matrix(1.5537 0 0 1.5537 -40.342 -70.066)" d="m83.285 146.68c-0.48697-0.0627-0.89133-0.31073-1.0046-0.6161-0.10428-0.2811-0.51816-0.7121-0.91972-0.95778-0.40155-0.24567-0.82805-0.71068-0.94776-1.0334-0.17658-0.476-0.0885-0.63342 0.46658-0.83425 0.37624-0.13638 1.0443-0.13279 1.4843 7e-3 0.8544 0.27233 1.4787 0.18237 1.3394-0.19303-0.14398-0.3881 0.61313-2.2245 0.97199-2.3576 0.43478-0.16129 1.3614 1.3536 1.1669 1.9078-0.0917 0.26126-0.0109 0.51511 0.22018 0.69128 0.54105 0.4127 0.61072 0.7568 0.32449 1.6027l-0.2578 0.76187-0.83272-0.35018c-0.81204-0.34149-0.83205-0.33645-0.80617 0.20307 0.0451 0.94165-0.30779 1.2838-1.205 1.1682z" style="fill:#c8e1b6;stroke-width:4"/>
        <path transform="matrix(-1.5537 0 0 1.5537 242.13 -53.879)" d="m100.26 147.26c0.52186-0.48844 0.57648-1.4127 0.10594-1.7923-0.46444-0.37468-0.48066-0.47214-0.0809-0.48581 0.52949-0.0181 1.0032-0.7528 1.112-1.7245 0.11669-1.0429-0.16377-1.8293-0.64659-1.8128-0.78432 0.0268-2.3188 0.8769-3.2119 1.7794-0.68407 0.69122-0.9866 0.89198-1.1595 0.76944-0.12863-0.0912-0.26874-0.0797-0.31132 0.0255-0.0426 0.10513-0.64097-0.29317-1.3297-0.88521-1.2561-1.0797-2.6118-1.602-3.0535-1.1763-0.279 0.2689-0.28242 1.18-8e-3 2.1928 0.18929 0.69929 0.32506 0.87647 0.80539 1.0515 0.56854 0.20718 0.57254 0.21498 0.25157 0.48969-0.81016 0.69341-0.0434 2.0954 1.4469 2.6455l0.65574 0.24205 0.6944-0.85813c0.745-0.92065 1.1146-1.0834 1.3273-0.58438 0.0733 0.17227 0.41768 0.51727 0.76507 0.76668 0.55923 0.40152 0.7228 0.41285 1.4275 0.0989 0.43773-0.19501 0.98216-0.52889 1.2098-0.74197z" style="fill:#548235;stroke-width:4"/>
        <path transform="matrix(1.5537 0 0 1.5537 -17.605 -29.588)" d="m107.92 132.39c0.36725-0.19277 0.61465-0.50799 0.61465-0.78314 0-0.25328 0.20116-0.71624 0.44702-1.0288 0.24587-0.31256 0.44703-0.80617 0.44703-1.0969 0-0.42888-0.11598-0.52769-0.61466-0.52366-0.33806 2e-3 -0.86611 0.20166-1.1734 0.44205-0.5967 0.46673-1.1176 0.5789-1.1176 0.24066 0-0.34969-1.1392-1.5817-1.4626-1.5817-0.39174 0-0.6805 1.4721-0.36364 1.8539 0.14938 0.17999 0.15994 0.40479 0.0287 0.6122-0.30727 0.48584-0.26135 0.77884 0.21389 1.3647l0.42803 0.52767 0.55664-0.52202c0.54283-0.50905 0.56015-0.51095 0.69818-0.076 0.24092 0.75908 0.62098 0.92636 1.2977 0.57117z" style="fill:#70ad47;stroke-width:4"/>
        <path transform="matrix(1.5537 0 0 1.5537 -69.594 -76.319)" d="m112.72 147.42c0.32487-0.17052 0.54371-0.44935 0.54371-0.69274 0-0.22404 0.17794-0.63357 0.39542-0.91005 0.21749-0.27649 0.39543-0.71313 0.39543-0.97032 0-0.37938-0.10259-0.46679-0.54371-0.46321-0.29904 2e-3 -0.76613 0.17837-1.038 0.39102-0.52781 0.41286-0.98856 0.51208-0.98856 0.21288 0-0.30933-1.0077-1.3992-1.2937-1.3992-0.34652 0-0.60195 1.3022-0.32167 1.6399 0.13214 0.15921 0.14148 0.35807 0.0254 0.54154-0.2718 0.42975-0.23118 0.68894 0.18919 1.2072l0.37863 0.46676 0.49239-0.46176c0.48017-0.45029 0.49549-0.45197 0.61759-0.0673 0.21311 0.67145 0.5493 0.81943 1.1479 0.50523z" style="fill:#689d44;stroke-width:4"/>
        <path transform="matrix(1.4937 .42764 -.42764 1.4937 32.109 -98.999)" d="m128.19 147.68c0.61387-7e-3 1.137-0.49865 1.0145-0.95316-0.12096-0.4486-0.0808-0.5117 0.19997-0.3145 0.37192 0.26117 1.0823 0.091 1.6674-0.3995 0.62796-0.52639 0.84928-1.1122 0.5102-1.3503-0.55089-0.38685-2.0479-0.69535-3.1334-0.64578-0.83145 0.038-1.144-4e-3 -1.1979-0.16166-0.0401-0.11717-0.14201-0.18253-0.22644-0.1452-0.0844 0.0373-0.28461-0.49326-0.44483-1.179-0.29222-1.2506-0.94561-2.2389-1.4716-2.226-0.33226 8e-3 -0.81343 0.51855-1.1581 1.2284-0.23792 0.49008-0.23822 0.65923-1e-3 1.0038 0.28022 0.40779 0.27886 0.41424-0.0852 0.40417-0.9189-0.0254-1.1309 1.1556-0.40011 2.2285l0.32158 0.47209 0.92627-0.12651c0.99372-0.13572 1.3322-0.0378 1.2155 0.35168-0.0403 0.13444 0.014 0.50479 0.12068 0.823 0.17174 0.51229 0.27771 0.60247 0.92501 0.78714 0.40218 0.11437 0.95017 0.20599 1.218 0.20291z" style="fill:#548235;stroke-width:4"/>
        <path transform="matrix(1.5537 0 0 1.5537 -32.783 -57.897)" d="m114.33 138.92c-0.40977-0.58567-0.27237-1.5013 0.2664-1.7755 0.5318-0.27071 0.56779-0.36272 0.17947-0.45863-0.51435-0.12704-0.8262-0.94373-0.73196-1.917 0.10115-1.0445 0.53794-1.756 1.007-1.6402 0.76188 0.18818 2.0878 1.3368 2.7753 2.4042 0.52661 0.81757 0.78117 1.0765 0.9756 0.99226 0.14469-0.0627 0.27941-0.0225 0.29935 0.0892 0.02 0.11166 0.68769-0.15451 1.4838-0.59158 1.452-0.7971 2.8863-1.0282 3.2306-0.52049 0.21746 0.32071 0.0327 1.2129-0.44494 2.1472-0.3296 0.64514-0.49903 0.79047-1.0052 0.86258-0.59907 0.0853-0.60459 0.0921-0.34726 0.42719 0.64953 0.84575-0.39019 2.0592-1.9619 2.2897l-0.69159 0.10144-0.50225-0.98302c-0.53886-1.0546-0.86692-1.2902-1.178-0.84584-0.10729 0.15343-0.51549 0.41988-0.90689 0.59219-0.63008 0.2774-0.79247 0.25471-1.4172-0.19797-0.38803-0.28119-0.85179-0.72029-1.0305-0.97578z" style="fill:#c8e1b6;stroke-width:4"/>
        <path transform="matrix(1.5537 0 0 1.5537 -40.342 -70.066)" d="m102.9 180.93c-0.84314-0.50397-1.7191-1.495-1.7522-1.9824-0.0168-0.24717-0.048-0.62799-0.0694-0.84627s0.17094-0.71291 0.42739-1.0992c0.60259-0.90763 0.58838-1.0175-0.13155-1.0175-0.85904 0-1.3179-0.92543-1.44-2.9041-0.13992-2.2687 0.0945-2.6208 1.428-2.1454 1.4376 0.51252 2.3474 1.2162 3.5664 2.7583 0.60044 0.75961 1.2834 1.3505 1.5608 1.3505 0.28672 0 0.92494-0.57858 1.5242-1.3818 1.6569-2.2207 3.4033-3.32 4.2104-2.6502 0.31208 0.259 0.36583 0.71439 0.24892 2.1089-0.17208 2.0525-0.52171 2.8638-1.2342 2.8638-0.74533 0-0.85756 0.39512-0.26465 0.93169 0.34455 0.31182 0.52293 0.81323 0.52293 1.47 0 0.84261-0.17099 1.1431-1.106 1.9434-0.60828 0.52066-1.3124 0.94666-1.5648 0.94666-0.26569 0-0.8015-0.55688-1.2728-1.3229-0.90653-1.4733-1.1877-1.5984-1.6357-0.7276-0.4801 0.93333-1.622 2.0521-2.077 2.035-0.22743-9e-3 -0.65079-0.15738-0.94078-0.33073z" style="fill:#689d44;stroke-width:4"/>
        <path transform="matrix(1.5537 0 0 1.5537 -30.258 -76.868)" d="m110.97 188.74c0.48697-0.0627 0.89133-0.31073 1.0046-0.6161 0.10428-0.2811 0.51816-0.7121 0.91972-0.95778 0.40155-0.24567 0.82805-0.71068 0.94776-1.0334 0.17658-0.476 0.0885-0.63342-0.46658-0.83425-0.37624-0.13638-1.0443-0.13279-1.4843 7e-3 -0.8544 0.27233-1.4787 0.18237-1.3394-0.19303 0.14398-0.3881-0.61313-2.2245-0.97199-2.3576-0.43478-0.16129-1.3614 1.3536-1.1669 1.9078 0.0917 0.26126 0.0109 0.51511-0.22018 0.69128-0.54105 0.4127-0.61072 0.7568-0.32449 1.6027l0.2578 0.76187 0.83272-0.35018c0.81204-0.34149 0.83205-0.33645 0.80617 0.20307-0.0451 0.94165 0.30779 1.2838 1.205 1.1682z" style="fill-opacity:.99216;fill:#c8e0b6;stroke-width:4"/>
        <path transform="matrix(1.5537 0 0 1.5537 -46.64 -73.197)" d="m101.81 187.84c0.32487-0.17052 0.54371-0.44935 0.54371-0.69274 0-0.22404 0.17794-0.63357 0.39542-0.91005 0.21749-0.27649 0.39543-0.71313 0.39543-0.97032 0-0.37938-0.10259-0.46679-0.54371-0.46321-0.29904 2e-3 -0.76613 0.17837-1.038 0.39102-0.52781 0.41286-0.98856 0.51208-0.98856 0.21288 0-0.30933-1.0077-1.3992-1.2937-1.3992-0.34652 0-0.60195 1.3022-0.32167 1.6399 0.13214 0.15921 0.14148 0.35807 0.0254 0.54154-0.2718 0.42975-0.23118 0.68894 0.18919 1.2072l0.37863 0.46676 0.49239-0.46176c0.48017-0.45029 0.49549-0.45197 0.61759-0.0673 0.21311 0.67145 0.5493 0.81943 1.1479 0.50523z" style="fill:#548235;stroke-width:4"/>
        <path transform="matrix(1.5537 0 0 1.5537 -40.342 -70.066)" d="m94.135 178.57c-0.32487-0.12832-0.54371-0.33816-0.54371-0.52132 0-0.1686-0.17794-0.47679-0.39542-0.68486-0.21749-0.20807-0.39543-0.53667-0.39543-0.73022 0-0.2855 0.10259-0.35128 0.54371-0.34858 0.29904 1e-3 0.76613 0.13423 1.038 0.29426 0.52781 0.3107 0.98856 0.38536 0.98856 0.1602 0-0.23279 1.0077-1.0529 1.2937-1.0529 0.34652 0 0.60195 0.97997 0.32167 1.2341-0.13214 0.11982-0.14148 0.26947-0.0254 0.40754 0.2718 0.32341 0.23118 0.51846-0.18919 0.90845l-0.37863 0.35126-0.49239-0.3475c-0.48017-0.33887-0.49549-0.34013-0.61759-0.0507-0.21311 0.5053-0.5493 0.61667-1.1479 0.38022z" style="fill:#c8e1b6;stroke-width:4"/>
        <path transform="matrix(1.5537 0 0 1.5537 -40.342 -70.066)" d="m90.511 174.99c0.40977-0.58566 0.27237-1.5013-0.2664-1.7755-0.5318-0.27071-0.56779-0.36272-0.17947-0.45864 0.51435-0.12704 0.8262-0.94372 0.73196-1.917-0.10115-1.0445-0.53794-1.756-1.007-1.6402-0.76188 0.18819-2.0878 1.3368-2.7753 2.4042-0.52661 0.81757-0.78117 1.0765-0.9756 0.99226-0.14469-0.0627-0.27941-0.0225-0.29935 0.0892-0.02 0.11166-0.68769-0.1545-1.4838-0.59158-1.452-0.79709-2.8863-1.0282-3.2306-0.52049-0.21746 0.32072-0.0327 1.2129 0.44494 2.1472 0.3296 0.64514 0.49903 0.79047 1.0052 0.86258 0.59907 0.0853 0.60459 0.0921 0.34726 0.4272-0.64953 0.84574 0.39019 2.0592 1.9619 2.2897l0.69159 0.10144 0.50225-0.98302c0.53886-1.0546 0.86692-1.2902 1.178-0.84583 0.10729 0.15342 0.51549 0.41988 0.90689 0.59219 0.63008 0.2774 0.79247 0.25471 1.4172-0.19798 0.38803-0.28119 0.85179-0.72029 1.0305-0.97578z" style="fill:#689d44;stroke-width:4"/>
        <path transform="matrix(1.5537 0 0 1.5537 -38.308 -70.457)" d="m119.89 177.05c0.43474-0.22821 0.7276-0.60135 0.7276-0.92706 0-0.29982 0.23813-0.84786 0.52917-1.2179s0.52917-0.95432 0.52917-1.2985c0-0.50769-0.13729-0.62466-0.72761-0.61988-0.40018 3e-3 -1.0253 0.23871-1.3891 0.52327-0.70634 0.5525-1.3229 0.68528-1.3229 0.28488 0-0.41395-1.3486-1.8724-1.7313-1.8724-0.46373 0-0.80555 1.7426-0.43047 2.1946 0.17683 0.21306 0.18933 0.47917 0.034 0.7247-0.36373 0.57511-0.30937 0.92196 0.25319 1.6155l0.50669 0.62464 0.65893-0.61795c0.64257-0.6026 0.66308-0.60484 0.82647-0.09 0.28519 0.89857 0.73509 1.0966 1.5361 0.67613z" style="fill:#548235;stroke-width:4"/>
        <path transform="matrix(1.5537 0 0 1.5537 -66.977 -58.824)" d="m123.87 180.14c-0.32487-0.17052-0.54371-0.44935-0.54371-0.69274 0-0.22404-0.17794-0.63357-0.39542-0.91005-0.21749-0.27649-0.39543-0.71313-0.39543-0.97032 0-0.37938 0.10259-0.46679 0.54371-0.46321 0.29904 2e-3 0.76613 0.17837 1.038 0.39102 0.52781 0.41286 0.98856 0.51208 0.98856 0.21288 0-0.30933 1.0077-1.3992 1.2937-1.3992 0.34652 0 0.60195 1.3022 0.32167 1.6399-0.13214 0.15921-0.14148 0.35807-0.0254 0.54154 0.2718 0.42975 0.23118 0.68894-0.18919 1.2072l-0.37863 0.46676-0.49239-0.46176c-0.48017-0.45029-0.49549-0.45197-0.61759-0.0673-0.21311 0.67145-0.5493 0.81943-1.1479 0.50523z" style="fill:#70ad47;stroke-width:4"/>
        <path transform="matrix(1.5537 0 0 1.5537 -40.342 -70.066)" d="m129.52 173.9c0.32487-0.17052 0.54371-0.44935 0.54371-0.69274 0-0.22404 0.17794-0.63357 0.39542-0.91005 0.21749-0.27649 0.39543-0.71313 0.39543-0.97032 0-0.37938-0.10259-0.46679-0.54371-0.46321-0.29904 2e-3 -0.76613 0.17837-1.038 0.39102-0.52781 0.41286-0.98856 0.51208-0.98856 0.21288 0-0.30933-1.0077-1.3992-1.2937-1.3992-0.34652 0-0.60195 1.3022-0.32167 1.6399 0.13214 0.15921 0.14148 0.35807 0.0254 0.54154-0.2718 0.42975-0.23118 0.68894 0.18919 1.2072l0.37863 0.46676 0.49239-0.46176c0.48017-0.45029 0.49549-0.45197 0.61759-0.0673 0.21311 0.67145 0.5493 0.81943 1.1479 0.50523z" style="fill:#c8e1b6;stroke-width:4"/>
        <text x="122.76988" y="173.13553" style="fill:#689d44;font-family:sans-serif;font-size:11.909px;line-height:1.25;stroke-width:6.2148" xml:space="preserve"><tspan x="122.76988" y="173.13553" style="fill:#689d44;font-family:Lato;font-size:21.924px;font-weight:bold;stroke-width:6.2148;text-align:center;text-anchor:middle">20x</tspan><tspan x="122.76988" y="191.22705" style="fill:#689d44;font-family:Lato;font-weight:bold;stroke-width:6.2148;text-align:center;text-anchor:middle">BIODIVERSITY</tspan></text>
    </g>
</svg>
